<svg viewBox="0 -38 512 512" xmlns="http://www.w3.org/2000/svg"><path d="m512 45.089844c0-24.863282-20.226562-45.089844-45.089844-45.089844-24.433594 0-44.375 19.539062-45.054687 43.8125h-71.859375c-3.105469 0-5.890625 1.910156-7.011719 4.804688l-7.015625 18.144531-6.355469-17.941407c-1.0625-3-3.898437-5.007812-7.082031-5.007812h-154.703125c-4.152344 0-7.515625 3.367188-7.515625 7.515625s3.363281 7.515625 7.515625 7.515625h149.390625l8.179688 23.105469c1.558593 4.398437 5.578124 7.28125 10.246093 7.351562h.164063c4.597656 0 8.621094-2.753906 10.285156-7.054687l9.054688-23.402344h66.675781v169.578125c0 4.148437 3.363281 7.511719 7.515625 7.511719 4.148437 0 7.511718-3.363282 7.511718-7.511719v-183.332031c0-16.574219 13.484376-30.058594 30.058594-30.058594 16.574219 0 30.058594 13.484375 30.058594 30.058594v270.019531c-7.980469-7.152344-18.515625-11.515625-30.058594-11.515625-11.539062 0-22.074218 4.359375-30.058594 11.515625v-56.628906c0-4.152344-3.363281-7.515625-7.511718-7.515625-4.152344 0-7.515625 3.363281-7.515625 7.515625v62.875h-191.234375l-10.617188-20.582031c-2.433594-4.71875-7.246094-7.515626-12.539062-7.277344-5.300782.226562-9.851563 3.414062-11.871094 8.324218l-8.09375 19.664063-7.382812-19.410156c-1.914063-5.035157-6.445313-8.347657-11.820313-8.652344-5.351563-.292969-10.253906 2.480469-12.722656 7.265625l-10.660157 20.667969h-54.707031v-262.515625h47.59375c4.152344 0 7.515625-3.363282 7.515625-7.511719 0-4.152344-3.363281-7.515625-7.515625-7.515625h-47.625c-.679687-24.273438-20.621093-43.8125-45.054687-43.8125-24.863282 0-45.089844 20.226562-45.089844 45.089844v301.816406c0 .199219.015625.398438.03125.59375-.0117188.394531-.03125.785156-.03125 1.179688 0 16.746093 9.089844 31.789062 23.546875 39.617187v2.578125c-3.757813 4.710938-6.011719 10.667969-6.011719 17.148438 0 15.195312 12.359375 27.554687 27.554688 27.554687 15.191406 0 27.550781-12.359375 27.550781-27.554687 0-6.476563-2.253906-12.4375-6.011719-17.148438v-2.578125c14.457032-7.828125 23.546875-22.871094 23.546875-39.617187 0-.394532 0-12.292969 0-12.292969h59.289063c2.8125 0 5.386718-1.570313 6.675781-4.070313l11.148437-21.613281 9.351563 24.589844c1.679687 4.414062 5.820313 7.308593 10.542969 7.375h.160156c4.660156 0 8.800781-2.769531 10.578125-7.089844l10.25-24.902344 11.164063 21.636719c1.285156 2.5 3.863281 4.070312 6.675781 4.070312h195.8125v12.296876c0 16.746093 9.089843 31.789062 23.546875 39.613281v2.582031c-3.757813 4.707031-6.011719 10.667969-6.011719 17.148438 0 15.195312 12.359375 27.554687 27.550781 27.554687 15.195313 0 27.554688-12.359375 27.554688-27.554687 0-6.480469-2.253906-12.441407-6.011719-17.148438v-2.582031c14.457031-7.824219 23.546875-22.867188 23.546875-39.613281 0-.394532 0-303.589844 0-303.589844zm-466.910156-30.058594c16.574218 0 30.058594 13.484375 30.058594 30.058594v270.019531c-7.984376-7.152344-18.519532-11.515625-30.058594-11.515625-11.542969 0-22.078125 4.359375-30.058594 11.515625v-270.019531c0-16.574219 13.484375-30.058594 30.058594-30.058594zm6.511718 366.222656c-2.089843-.507812-4.269531-.78125-6.511718-.78125-2.246094 0-4.425782.273438-6.515625.78125v-24.328125c0-3.589843 2.921875-6.511719 6.515625-6.511719 3.589844 0 6.511718 2.921876 6.511718 6.511719zm-6.511718 39.296875c-6.910156 0-12.527344-5.621093-12.527344-12.527343s5.617188-12.523438 12.527344-12.523438c6.90625 0 12.523437 5.617188 12.523437 12.523438s-5.617187 12.527343-12.523437 12.527343zm21.539062-50.902343v-12.722657c0-11.878906-9.664062-21.542969-21.539062-21.542969-11.878906 0-21.542969 9.664063-21.542969 21.542969v12.722657c-5.359375-5.488282-8.515625-12.925782-8.515625-20.96875 0-16.574219 13.484375-30.058594 30.058594-30.058594 16.574218 0 30.058594 13.484375 30.058594 30.058594 0 8.042968-3.160157 15.480468-8.519532 20.96875zm406.796875 11.605468c-2.089843-.507812-4.269531-.78125-6.515625-.78125-2.242187 0-4.421875.273438-6.511718.78125v-24.328125c0-3.589843 2.921874-6.511719 6.511718-6.511719 3.59375 0 6.515625 2.921876 6.515625 6.511719zm-6.515625 39.296875c-6.90625 0-12.523437-5.621093-12.523437-12.527343s5.617187-12.523438 12.523437-12.523438c6.910156 0 12.527344 5.617188 12.527344 12.523438s-5.617188 12.527343-12.527344 12.527343zm21.542969-50.902343v-12.722657c0-11.878906-9.664063-21.542969-21.542969-21.542969-11.875 0-21.539062 9.664063-21.539062 21.542969v12.722657c-5.359375-5.488282-8.519532-12.925782-8.519532-20.96875 0-16.574219 13.484376-30.058594 30.058594-30.058594 16.574219 0 30.058594 13.484375 30.058594 30.058594 0 8.042968-3.15625 15.480468-8.515625 20.96875zm0 0"></path><path d="m256.5 296.808594c34.304688 0 62.519531-29.308594 73.058594-41.910156 4.449218-5.324219 4.449218-13.054688 0-18.382813 0 0 0 0-.003906 0-10.535157-12.601563-38.75-41.910156-73.054688-41.910156s-62.515625 29.308593-73.054688 41.910156c-4.453124 5.328125-4.453124 13.058594 0 18.382813 10.539063 12.601562 38.75 41.910156 73.054688 41.910156zm0-87.171875c7.238281 0 32.957031 2.613281 61.148438 36.070312-28.191407 33.460938-53.910157 36.070313-61.148438 36.070313-7.234375 0-32.957031-2.609375-61.144531-36.070313 28.1875-33.457031 53.910156-36.070312 61.144531-36.070312zm0 0"></path><path d="m256.5 276.269531c16.851562 0 30.5625-13.710937 30.5625-30.5625 0-16.851562-13.710938-30.558593-30.5625-30.558593-16.847656 0-30.558594 13.707031-30.558594 30.558593 0 16.851563 13.710938 30.5625 30.558594 30.5625zm0-46.09375c8.566406 0 15.53125 6.96875 15.53125 15.53125 0 8.566407-6.964844 15.53125-15.53125 15.53125-8.5625 0-15.53125-6.964843-15.53125-15.53125 0-8.5625 6.96875-15.53125 15.53125-15.53125zm0 0"></path><path d="m121.738281 112.449219c0 4.148437 3.363281 7.511719 7.515625 7.511719h17.03125c4.152344 0 7.515625-3.363282 7.515625-7.511719 0-4.152344-3.363281-7.515625-7.515625-7.515625h-17.03125c-4.152344 0-7.515625 3.363281-7.515625 7.515625zm0 0"></path><path d="m383.75 104.933594h-210.410156c-4.152344 0-7.515625 3.363281-7.515625 7.515625 0 4.148437 3.363281 7.511719 7.515625 7.511719h210.410156c4.152344 0 7.515625-3.363282 7.515625-7.511719 0-4.152344-3.363281-7.515625-7.515625-7.515625zm0 0"></path><path d="m199.890625 171.5625c0-4.148438-3.363281-7.515625-7.515625-7.515625h-63.121094c-4.152344 0-7.515625 3.367187-7.515625 7.515625 0 4.152344 3.363281 7.515625 7.515625 7.515625h63.121094c4.152344 0 7.515625-3.363281 7.515625-7.515625zm0 0"></path><path d="m391.265625 171.5625c0-4.148438-3.363281-7.515625-7.515625-7.515625h-164.320312c-4.152344 0-7.515626 3.367187-7.515626 7.515625 0 4.152344 3.363282 7.515625 7.515626 7.515625h164.320312c4.152344 0 7.515625-3.363281 7.515625-7.515625zm0 0"></path><path d="m383.75 133.988281h-47.09375c-4.148438 0-7.511719 3.367188-7.511719 7.515625 0 4.152344 3.363281 7.515625 7.511719 7.515625h47.09375c4.152344 0 7.515625-3.363281 7.515625-7.515625 0-4.148437-3.363281-7.515625-7.515625-7.515625zm0 0"></path><path d="m121.738281 141.503906c0 4.152344 3.363281 7.515625 7.515625 7.515625h180.351563c4.148437 0 7.515625-3.363281 7.515625-7.515625 0-4.148437-3.367188-7.515625-7.515625-7.515625h-180.351563c-4.152344 0-7.515625 3.367188-7.515625 7.515625zm0 0"></path><path d="m57.113281 289.292969c4.148438 0 7.511719-3.363281 7.511719-7.515625v-31.058594c0-4.152344-3.363281-7.515625-7.511719-7.515625-4.152343 0-7.515625 3.363281-7.515625 7.515625v31.058594c0 4.152344 3.363282 7.515625 7.515625 7.515625zm0 0"></path><path d="m57.113281 225.167969c4.148438 0 7.511719-3.363281 7.511719-7.515625v-136.265625c0-4.148438-3.363281-7.515625-7.511719-7.515625-4.152343 0-7.515625 3.367187-7.515625 7.515625v136.265625c0 4.152344 3.363282 7.515625 7.515625 7.515625zm0 0"></path><path d="m457.894531 119.960938c4.152344 0 7.515625-3.363282 7.515625-7.511719v-31.0625c0-4.148438-3.363281-7.515625-7.515625-7.515625-4.152343 0-7.515625 3.367187-7.515625 7.515625v31.0625c0 4.148437 3.363282 7.511719 7.515625 7.511719zm0 0"></path><path d="m450.378906 281.777344c0 4.152344 3.363282 7.515625 7.515625 7.515625 4.152344 0 7.515625-3.363281 7.515625-7.515625v-136.265625c0-4.148438-3.363281-7.515625-7.515625-7.515625-4.152343 0-7.515625 3.367187-7.515625 7.515625zm0 0"></path></svg>