<svg version="1.1" id="Capa_1" xmlns="http://www.w3.org/2000/svg" xmlns:xlink="http://www.w3.org/1999/xlink" x="0px" y="0px" viewBox="0 1 503.607 503.607" style="enable-background:new 0 0 503.607 503.607;" xml:space="preserve"><g><g><g><path d="M495.213,172.066h-72.56c-13.891-11.316-83.939-67.979-129.237-97.15c-2.345-16.238-16.344-28.751-33.223-28.751 s-30.877,12.514-33.223,28.751c-45.298,29.172-115.346,85.834-129.237,97.15H8.393c-4.642,0-8.393,3.76-8.393,8.393v268.59 c0,4.633,3.752,8.393,8.393,8.393h486.82c4.633,0,8.393-3.76,8.393-8.393v-268.59 C503.607,175.826,499.846,172.066,495.213,172.066z M260.193,62.951c9.258,0,16.787,7.529,16.787,16.787 c0,9.258-7.529,16.787-16.787,16.787c-9.258,0-16.787-7.529-16.787-16.787C243.406,70.48,250.935,62.951,260.193,62.951z M229.501,93.324c5.226,11.762,17.011,19.988,30.692,19.988s25.466-8.225,30.692-19.988 c33.966,22.659,79.834,58.619,105.016,78.742H124.486C149.667,151.943,195.535,115.983,229.501,93.324z M486.82,440.656H16.787 V188.852H486.82V440.656z"></path><path d="M41.967,222.426v184.656c0,4.633,3.752,8.393,8.393,8.393h402.885c4.633,0,8.393-3.76,8.393-8.393V222.426 c0-4.633-3.76-8.393-8.393-8.393H50.361C45.719,214.033,41.967,217.793,41.967,222.426z M58.754,230.82h386.098v167.869H58.754 V230.82z"></path><path d="M369.308,289.574c0-18.516-15.058-33.574-33.574-33.574h-25.18c-4.633,0-8.393,3.76-8.393,8.393v50.361v50.361 c0,4.633,3.76,8.393,8.393,8.393h25.18c18.516,0,33.574-15.058,33.574-33.574c0-10.022-4.417-19.024-11.4-25.18 C364.891,308.598,369.308,299.595,369.308,289.574z M352.521,339.934c0,9.258-7.529,16.787-16.787,16.787h-16.787v-33.574h16.787 C344.992,323.147,352.521,330.676,352.521,339.934z M318.947,306.361v-33.574h16.787c9.258,0,16.787,7.529,16.787,16.787 c0,9.258-7.529,16.787-16.787,16.787H318.947z"></path><path d="M253.73,256h-20.648c-12.817,0-23.25,10.433-23.25,23.25v71.008c0,12.817,10.433,23.25,23.25,23.25h20.648 c12.817,0,23.25-10.433,23.25-23.25V279.25C276.98,266.433,266.547,256,253.73,256z M260.193,350.258 c0,3.567-2.896,6.463-6.463,6.463h-20.648c-3.567,0-6.463-2.896-6.463-6.463V279.25c0-3.567,2.896-6.463,6.463-6.463h20.648 c3.567,0,6.463,2.896,6.463,6.463V350.258z"></path><path d="M176.259,256c-4.633,0-8.393,3.76-8.393,8.393v75.541c0,9.258-7.529,16.787-16.787,16.787 c-9.258,0-16.787-7.529-16.787-16.787c0-4.633-3.76-8.393-8.393-8.393c-4.633,0-8.393,3.76-8.393,8.393 c0,18.516,15.058,33.574,33.574,33.574s33.574-15.058,33.574-33.574v-75.541C184.652,259.76,180.892,256,176.259,256z"></path></g></g></g></svg>