<svg id="svg5500" viewBox="0 1 16.9 16" xmlns="http://www.w3.org/2000/svg" xmlns:svg="http://www.w3.org/2000/svg"><g id="layer1" transform="translate(148.923 -136.436)"><path id="path1336" d="m-143.38739 138.29141c-.36365-.001-.73088.019-1.09141.0522-.75519.0694-1.47893.1904-2.07584.29301-.43785.0454-.87327.17806-1.31258.18345-.14612.00053-.26413.11363-.26355.26562v8.74055c-.00053.14612.11743.26503.26355.26562h.01.0176c.33971 0 .84228-.12697 1.50171-.28526s1.44713-.35401 2.23036-.50591c.78322-.1519 1.5641-.25813 2.19159-.24598.62749.0121 1.0712.1531 1.25212.38654.10594.13648.31213.13648.41807 0 .18092-.23344.62204-.37439 1.24953-.38654.62749-.0121 1.40837.0941 2.1916.24598.78323.1519 1.57092.34762 2.23035.50591.51097.0826 1.02614.27894 1.52187.28526.26837 0 .2713-.15813.2713-.26562v-8.74055c.00053-.14612-.11743-.26503-.26355-.26562-.49321-.0372-.92159-.11669-1.31051-.18345-.59691-.10261-1.32116-.22356-2.07636-.29301-1.39754-.1285-2.88956-.056-3.92586.67541-.12719 0-.13588-.00026-.19585-.00053-.91329-.51442-1.9649-.72707-2.83393-.72707zm.0501.52813c.79609.007 1.99614.17803 2.61638.6656.006 2.44469-.008 4.93684.001 7.3615-.32551-.20788-.70707-.31234-1.1866-.32163-.69486-.0135-1.49936.10092-2.30064.25632s-1.59783.35199-2.25413.50953c-.54289.13032-.89541.19428-1.14049.22479v-8.1995c.303-.0237.64517-.0736 1.13688-.15813.59478-.10224 1.30288-.22019 2.03295-.28732.37387-.0216.75834-.0508 1.0946-.0512zm5.76192 0c.36076-.001.72947.0176 1.09451.0512.73006.0671 1.44075.18508 2.03553.28732.49156.0845.83184.1344 1.13481.15813v8.1995c-.24508-.0305-.59812-.0945-1.14101-.22479-.6563-.15754-1.45027-.35413-2.25154-.50953-.80128-.1554-1.60785-.26977-2.3027-.25632-.48071.009-.86051.11772-1.18598.3266-.00002-2.43658-.00001-4.91543-.00001-7.36647.84282-.49797 1.82226-.65747 2.61639-.6656zm-7.41712 1.2914c-.95349.10468-1.62677.31471-1.62677.31471-.33866.103-.18414.61098.15451.50798 0 0 2.59735-.76194 4.59145-.006.33073.12506.51831-.37103.18758-.49609-1.13561-.37709-2.17556-.44223-3.30677-.3204zm5.76554.32039c-.33073.12506-.14314.62115.18759.49609 1.9941-.75577 4.59403.006 4.59403.006.33865.10162.4911-.40635.15245-.50798 0 0-.67381-.20952-1.62729-.3142v-.00053c-1.08467-.12062-2.3441-.0351-3.30678.32042zm-5.76554 1.81849c-.95349.10468-1.62677.31626-1.62677.31626-.35074.0957-.18986.6225.15451.50592 0 0 2.59735-.76142 4.59145-.006.34055.15089.54246-.38087.18758-.49403-1.12472-.3461-2.21387-.4401-3.30677-.32246zm5.76554.32247c-.35486.11316-.15295.64491.18759.49402 1.9941-.75577 4.59403.006 4.59403.006.35076.12763.51532-.4185.15245-.50591 0 0-.67381-.21158-1.62729-.31626-1.11827-.10974-2.35921-.0275-3.30678.32246zm-5.76554 1.81797c-.95349.10468-1.62677.31471-1.62677.31471-.33866.10301-.18414.61099.15451.50798 0 0 2.59735-.76193 4.59145-.006.33073.12506.51831-.37104.18758-.49609-1.13561-.37709-2.17556-.44224-3.30677-.32041zm5.76554.3204c-.33073.12505-.14314.62115.18759.49609 1.9941-.75577 4.59403.006 4.59403.006.33865.10163.4911-.40635.15245-.50798 0 0-.67381-.21003-1.62729-.31471-1.08467-.12063-2.3441-.0351-3.30678.32041zm-5.97224 3.62717c-.0537.00004-.10619.0164-.15038.047-.6352.42851-1.25405.87989-1.8769 1.32603-.14661.1056-.14661.32383 0 .42943.61749.46772 1.25957.89714 1.90222 1.32809.0438.0294.0955.0451.14831.045h9.54308c.25999 0 .47646-.21922.47646-.47853v-.0507h1.05265c.28804 0 .52761-.23906.52761-.5271v-1.06091c0-.28804-.23957-.52917-.52761-.52917h-1.05265v-.0506c0-.25937-.21646-.47852-.47646-.47852zm.0816.52916h9.43199v2.11718h-9.41028l-.38861-.26096v-1.59067c.098-.0951.24689-.18252.3669-.26555zm5.71903.26562c-.28803 0-.52761.23958-.52761.52761v.53124c0 .28804.23958.52917.52761.52917h2.90009c.28803 0 .52761-.24113.52761-.52917v-.53124c0-.28803-.23958-.52761-.52761-.52761zm4.24212.26355h1.05265v1.05885h-1.05265zm-10.85722.0956v.86765l-.60564-.43357zm6.61717.17001h2.89646v.52969h-2.89646z" font-variant-ligatures="normal" font-variant-position="normal" font-variant-caps="normal" font-variant-numeric="normal" font-variant-alternates="normal" font-feature-settings="normal" text-indent="0" text-align="start" text-decoration-line="none" text-decoration-style="solid" text-decoration-color="rgb(0,0,0)" text-transform="none" text-orientation="mixed" white-space="normal" shape-padding="0" isolation="auto" mix-blend-mode="normal" solid-color="rgb(0,0,0)" solid-opacity="1" vector-effect="none" paint-order="normal"></path></g></svg>